# xmcd
#
# Track frame offsets:
#	150
#	16317
#	34819
#	50251
#	68725
#	83355
#	102922
#	118888
#	131518
#	147398
#	167807
#	183589
#
# Disc length: 2732 seconds
#
# Revision: 2
# Processed by: cddbd v1.4PL0 Copyright (c) Steve Scherf et al.
# Submitted via: audiograbber 1.82.01
#
DISCID=9f0aaa0c
DTITLE=Various Artist - Today's Hit Country - Disc 8
DYEAR=2002
DGENRE=Country
TTITLE0=Andy Griggs - You Won't Ever Be Lonely
TTITLE1=Chris Cagle - I Breathe In, I Breathe Out
TTITLE2=Clay Walker - My Heart Will Never Know
TTITLE3=Diamond Rio - You're Gone
TTITLE4=Dixie Chicks - There's Your Trouble
TTITLE5=Garth Brooks - Shameless
TTITLE6=George Strait - I Just Want To Dance With You
TTITLE7=Little Big Town - Don't Waste My Time
TTITLE8=Lonestar - What About Now
TTITLE9=Martina McBride - Whatever You Say
TTITLE10=Toby Keith - How Do You Like Me Now?
TTITLE11=Travis Tritt - Modern Day Bonnie and Clyde
EXTD=
EXTT0=
EXTT1=
EXTT2=
EXTT3=
EXTT4=
EXTT5=
EXTT6=
EXTT7=
EXTT8=
EXTT9=
EXTT10=
EXTT11=
PLAYORDER=
